<svg width="960" height="260" viewBox="0 0 960 260" xmlns="http://www.w3.org/2000/svg">
  <!-- Background -->
  <defs>
    <linearGradient id="bg" x1="0" y1="0" x2="1" y2="1">
      <stop offset="0%" stop-color="#050816"/>
      <stop offset="100%" stop-color="#111827"/>
    </linearGradient>
    <radialGradient id="glow" cx="50%" cy="30%" r="60%">
      <stop offset="0%" stop-color="#fef9c3" stop-opacity="0.9"/>
      <stop offset="40%" stop-color="#fde68a" stop-opacity="0.6"/>
      <stop offset="100%" stop-color="#facc15" stop-opacity="0"/>
    </radialGradient>
  </defs>

  <rect width="960" height="260" fill="url(#bg)" />

  <!-- Glow behind bulb -->
  <circle cx="150" cy="130" r="120" fill="url(#glow)" />

  <!-- Light bulb body -->
  <g transform="translate(120,70)">
    <!-- Bulb glass -->
    <ellipse cx="30" cy="40" rx="40" ry="50" fill="#fef9c3" stroke="#facc15" stroke-width="3"/>
    <!-- Face -->
    <circle cx="15" cy="35" r="4" fill="#1f2937"/>
    <circle cx="45" cy="35" r="4" fill="#1f2937"/>
    <path d="M18 50 Q30 58 42 50" stroke="#1f2937" stroke-width="2" fill="none" stroke-linecap="round"/>
    <!-- Filament -->
    <path d="M20 28 Q30 20 40 28" stroke="#f59e0b" stroke-width="2" fill="none" stroke-linecap="round"/>

    <!-- Base -->
    <rect x="18" y="80" width="24" height="22" rx="4" fill="#4b5563"/>
    <rect x="18" y="86" width="24" height="4" fill="#6b7280"/>
    <rect x="18" y="94" width="24" height="4" fill="#6b7280"/>

    <!-- Wires -->
    <rect x="26" y="102" width="8" height="16" fill="#9ca3af"/>
  </g>

  <!-- Title text -->
  <text x="260" y="110" fill="#f9fafb" font-family="system-ui, -apple-system, BlinkMacSystemFont, 'Segoe UI', sans-serif"
        font-size="42" font-weight="700">
    Lumin
  </text>

  <!-- Subtitle -->
  <text x="260" y="150" fill="#d1d5db" font-family="system-ui, -apple-system, BlinkMacSystemFont, 'Segoe UI', sans-serif"
        font-size="20" font-weight="400">
    A local, voice-powered AI assistant with a glowing ASCII light bulb face
  </text>

  <!-- Tagline -->
  <text x="260" y="185" fill="#9ca3af" font-family="system-ui, -apple-system, BlinkMacSystemFont, 'Segoe UI', sans-serif"
        font-size="16" font-weight="400">
    Fast · Private · Hackable · Fun
  </text>

  <!-- Decorative dots -->
  <circle cx="820" cy="70" r="3" fill="#facc15"/>
  <circle cx="860" cy="110" r="3" fill="#f97316"/>
  <circle cx="830" cy="160" r="3" fill="#22c55e"/>
  <circle cx="880" cy="190" r="3" fill="#38bdf8"/>
</svg>
